<svg width="1200" height="900" viewBox="0 0 1200 900" fill="none" xmlns="http://www.w3.org/2000/svg">
  <rect width="1200" height="900" rx="48" fill="#090B16"/>
  <circle cx="865" cy="228" r="210" fill="url(#glow1)" fill-opacity="0.9"/>
  <circle cx="319" cy="762" r="240" fill="url(#glow2)" fill-opacity="0.65"/>
  <rect x="118" y="170" width="964" height="560" rx="34" fill="#101526" stroke="#243052" stroke-width="2"/>
  <rect x="158" y="210" width="500" height="480" rx="28" fill="#111B31" stroke="#2B3F6B"/>
  <g opacity="0.55">
    <path d="M194 242H622" stroke="#193154"/>
    <path d="M194 278H622" stroke="#193154"/>
    <path d="M194 314H622" stroke="#193154"/>
    <path d="M194 350H622" stroke="#193154"/>
    <path d="M194 386H622" stroke="#193154"/>
    <path d="M194 422H622" stroke="#193154"/>
    <path d="M194 458H622" stroke="#193154"/>
    <path d="M194 494H622" stroke="#193154"/>
    <path d="M194 530H622" stroke="#193154"/>
    <path d="M194 566H622" stroke="#193154"/>
    <path d="M194 602H622" stroke="#193154"/>
    <path d="M194 638H622" stroke="#193154"/>
    <path d="M194 242V658" stroke="#193154"/>
    <path d="M230 242V658" stroke="#193154"/>
    <path d="M266 242V658" stroke="#193154"/>
    <path d="M302 242V658" stroke="#193154"/>
    <path d="M338 242V658" stroke="#193154"/>
    <path d="M374 242V658" stroke="#193154"/>
    <path d="M410 242V658" stroke="#193154"/>
    <path d="M446 242V658" stroke="#193154"/>
    <path d="M482 242V658" stroke="#193154"/>
    <path d="M518 242V658" stroke="#193154"/>
    <path d="M554 242V658" stroke="#193154"/>
    <path d="M590 242V658" stroke="#193154"/>
  </g>
  <rect x="728" y="226" width="282" height="188" rx="26" fill="#131B31" stroke="#2A355A"/>
  <rect x="760" y="258" width="102" height="124" rx="16" fill="#1D2948"/>
  <rect x="782" y="280" width="58" height="10" rx="5" fill="#7BA7FF"/>
  <rect x="782" y="304" width="72" height="10" rx="5" fill="#74E4C8"/>
  <rect x="782" y="328" width="48" height="10" rx="5" fill="#F1D471"/>
  <rect x="880" y="260" width="98" height="22" rx="11" fill="#1E2D54"/>
  <rect x="880" y="296" width="78" height="14" rx="7" fill="#2A3963"/>
  <rect x="880" y="322" width="92" height="14" rx="7" fill="#2A3963"/>
  <rect x="880" y="348" width="60" height="14" rx="7" fill="#2A3963"/>
  <rect x="730" y="452" width="282" height="202" rx="26" fill="#131B31" stroke="#2A355A"/>
  <rect x="770" y="494" width="64" height="64" rx="16" fill="#20345E"/>
  <rect x="846" y="494" width="64" height="64" rx="16" fill="#1E2949"/>
  <rect x="922" y="494" width="64" height="64" rx="16" fill="#20345E"/>
  <rect x="770" y="570" width="216" height="16" rx="8" fill="#243055"/>
  <rect x="770" y="600" width="180" height="14" rx="7" fill="#1C2744"/>
  <rect x="770" y="630" width="138" height="14" rx="7" fill="#1C2744"/>
  <rect x="274" y="328" width="108" height="188" rx="18" fill="#486EAD" stroke="#97B7F5"/>
  <rect x="256" y="346" width="144" height="156" rx="16" fill="#EAEDEF" stroke="#D8DDE5"/>
  <rect x="286" y="370" width="84" height="14" rx="7" fill="#B5C0CC"/>
  <rect x="286" y="398" width="84" height="14" rx="7" fill="#B5C0CC"/>
  <rect x="286" y="426" width="84" height="14" rx="7" fill="#B5C0CC"/>
  <rect x="286" y="454" width="84" height="14" rx="7" fill="#B5C0CC"/>
  <rect x="470" y="290" width="88" height="206" rx="20" fill="#35578F" stroke="#81A9F5"/>
  <rect x="490" y="312" width="48" height="48" rx="24" fill="#D8573A"/>
  <rect x="486" y="386" width="56" height="14" rx="7" fill="#9BC0FF"/>
  <rect x="486" y="414" width="56" height="14" rx="7" fill="#9BC0FF"/>
  <rect x="486" y="442" width="56" height="14" rx="7" fill="#9BC0FF"/>
  <path d="M400 420C447 420 445 348 490 348" stroke="#6AF0D0" stroke-width="8" stroke-linecap="round"/>
  <path d="M544 348C600 348 604 284 760 284" stroke="#7BA7FF" stroke-width="8" stroke-linecap="round"/>
  <path d="M546 468C614 468 634 544 770 544" stroke="#F7B15E" stroke-width="8" stroke-linecap="round"/>
  <circle cx="400" cy="420" r="10" fill="#6AF0D0"/>
  <circle cx="490" cy="348" r="10" fill="#6AF0D0"/>
  <circle cx="544" cy="348" r="10" fill="#7BA7FF"/>
  <circle cx="760" cy="284" r="10" fill="#7BA7FF"/>
  <circle cx="546" cy="468" r="10" fill="#F7B15E"/>
  <circle cx="770" cy="544" r="10" fill="#F7B15E"/>
  <defs>
    <radialGradient id="glow1" cx="0" cy="0" r="1" gradientUnits="userSpaceOnUse" gradientTransform="translate(865 228) rotate(90) scale(210)">
      <stop stop-color="#5FA7FF"/>
      <stop offset="1" stop-color="#5FA7FF" stop-opacity="0"/>
    </radialGradient>
    <radialGradient id="glow2" cx="0" cy="0" r="1" gradientUnits="userSpaceOnUse" gradientTransform="translate(319 762) rotate(90) scale(240)">
      <stop stop-color="#7A5FFF"/>
      <stop offset="1" stop-color="#7A5FFF" stop-opacity="0"/>
    </radialGradient>
  </defs>
</svg>
