
<svg width="600" height="400" viewBox="0 0 600 400" xmlns="http://www.w3.org/2000/svg">
  <defs>
    <radialGradient id="bg" cx="50%" cy="50%" r="50%">
      <stop offset="0%" stop-color="#1e293b"/>
      <stop offset="100%" stop-color="#020617"/>
    </radialGradient>
    <linearGradient id="boardGrad" x1="0%" y1="0%" x2="100%" y2="100%">
      <stop offset="0%" stop-color="#059669"/>
      <stop offset="100%" stop-color="#064e3b"/>
    </linearGradient>
    <linearGradient id="boardGradBlue" x1="0%" y1="0%" x2="100%" y2="100%">
      <stop offset="0%" stop-color="#0284c7"/>
      <stop offset="100%" stop-color="#075985"/>
    </linearGradient>
    <filter id="glow" x="-20%" y="-20%" width="140%" height="140%">
      <feGaussianBlur stdDeviation="8" result="blur" />
      <feMerge>
        <feMergeNode in="blur" />
        <feMergeNode in="SourceGraphic" />
      </feMerge>
    </filter>
    <filter id="shadow" x="-5%" y="-5%" width="120%" height="120%">
      <feDropShadow dx="0" dy="8" stdDeviation="6" flood-color="#000" flood-opacity="0.6"/>
    </filter>
  </defs>
  <rect width="600" height="400" fill="url(#bg)"/>
  <g filter="url(#shadow)">
    
      <!-- Board Base -->
      <rect x="230" y="80" width="140" height="260" rx="8" fill="url(#boardGrad)" stroke="#34d399" stroke-width="2"/>
      
      <!-- Edges/Pins -->
      <circle cx="230" cy="95" r="4" fill="#fbbf24" opacity="0.8"/>
<circle cx="230" cy="95" r="2" fill="#0f172a" opacity="0.9"/>
<circle cx="230" cy="107" r="4" fill="#fbbf24" opacity="0.8"/>
<circle cx="230" cy="107" r="2" fill="#0f172a" opacity="0.9"/>
<circle cx="230" cy="119" r="4" fill="#fbbf24" opacity="0.8"/>
<circle cx="230" cy="119" r="2" fill="#0f172a" opacity="0.9"/>
<circle cx="230" cy="131" r="4" fill="#fbbf24" opacity="0.8"/>
<circle cx="230" cy="131" r="2" fill="#0f172a" opacity="0.9"/>
<circle cx="230" cy="143" r="4" fill="#fbbf24" opacity="0.8"/>
<circle cx="230" cy="143" r="2" fill="#0f172a" opacity="0.9"/>
<circle cx="230" cy="155" r="4" fill="#fbbf24" opacity="0.8"/>
<circle cx="230" cy="155" r="2" fill="#0f172a" opacity="0.9"/>
<circle cx="230" cy="167" r="4" fill="#fbbf24" opacity="0.8"/>
<circle cx="230" cy="167" r="2" fill="#0f172a" opacity="0.9"/>
<circle cx="230" cy="179" r="4" fill="#fbbf24" opacity="0.8"/>
<circle cx="230" cy="179" r="2" fill="#0f172a" opacity="0.9"/>
<circle cx="230" cy="191" r="4" fill="#fbbf24" opacity="0.8"/>
<circle cx="230" cy="191" r="2" fill="#0f172a" opacity="0.9"/>
<circle cx="230" cy="203" r="4" fill="#fbbf24" opacity="0.8"/>
<circle cx="230" cy="203" r="2" fill="#0f172a" opacity="0.9"/>
<circle cx="230" cy="215" r="4" fill="#fbbf24" opacity="0.8"/>
<circle cx="230" cy="215" r="2" fill="#0f172a" opacity="0.9"/>
<circle cx="230" cy="227" r="4" fill="#fbbf24" opacity="0.8"/>
<circle cx="230" cy="227" r="2" fill="#0f172a" opacity="0.9"/>
<circle cx="230" cy="239" r="4" fill="#fbbf24" opacity="0.8"/>
<circle cx="230" cy="239" r="2" fill="#0f172a" opacity="0.9"/>
<circle cx="230" cy="251" r="4" fill="#fbbf24" opacity="0.8"/>
<circle cx="230" cy="251" r="2" fill="#0f172a" opacity="0.9"/>
<circle cx="230" cy="263" r="4" fill="#fbbf24" opacity="0.8"/>
<circle cx="230" cy="263" r="2" fill="#0f172a" opacity="0.9"/>
<circle cx="230" cy="275" r="4" fill="#fbbf24" opacity="0.8"/>
<circle cx="230" cy="275" r="2" fill="#0f172a" opacity="0.9"/>
<circle cx="230" cy="287" r="4" fill="#fbbf24" opacity="0.8"/>
<circle cx="230" cy="287" r="2" fill="#0f172a" opacity="0.9"/>
<circle cx="230" cy="299" r="4" fill="#fbbf24" opacity="0.8"/>
<circle cx="230" cy="299" r="2" fill="#0f172a" opacity="0.9"/>
<circle cx="230" cy="311" r="4" fill="#fbbf24" opacity="0.8"/>
<circle cx="230" cy="311" r="2" fill="#0f172a" opacity="0.9"/>
<circle cx="230" cy="323" r="4" fill="#fbbf24" opacity="0.8"/>
<circle cx="230" cy="323" r="2" fill="#0f172a" opacity="0.9"/>

      <circle cx="370" cy="95" r="4" fill="#fbbf24" opacity="0.8"/>
<circle cx="370" cy="95" r="2" fill="#0f172a" opacity="0.9"/>
<circle cx="370" cy="107" r="4" fill="#fbbf24" opacity="0.8"/>
<circle cx="370" cy="107" r="2" fill="#0f172a" opacity="0.9"/>
<circle cx="370" cy="119" r="4" fill="#fbbf24" opacity="0.8"/>
<circle cx="370" cy="119" r="2" fill="#0f172a" opacity="0.9"/>
<circle cx="370" cy="131" r="4" fill="#fbbf24" opacity="0.8"/>
<circle cx="370" cy="131" r="2" fill="#0f172a" opacity="0.9"/>
<circle cx="370" cy="143" r="4" fill="#fbbf24" opacity="0.8"/>
<circle cx="370" cy="143" r="2" fill="#0f172a" opacity="0.9"/>
<circle cx="370" cy="155" r="4" fill="#fbbf24" opacity="0.8"/>
<circle cx="370" cy="155" r="2" fill="#0f172a" opacity="0.9"/>
<circle cx="370" cy="167" r="4" fill="#fbbf24" opacity="0.8"/>
<circle cx="370" cy="167" r="2" fill="#0f172a" opacity="0.9"/>
<circle cx="370" cy="179" r="4" fill="#fbbf24" opacity="0.8"/>
<circle cx="370" cy="179" r="2" fill="#0f172a" opacity="0.9"/>
<circle cx="370" cy="191" r="4" fill="#fbbf24" opacity="0.8"/>
<circle cx="370" cy="191" r="2" fill="#0f172a" opacity="0.9"/>
<circle cx="370" cy="203" r="4" fill="#fbbf24" opacity="0.8"/>
<circle cx="370" cy="203" r="2" fill="#0f172a" opacity="0.9"/>
<circle cx="370" cy="215" r="4" fill="#fbbf24" opacity="0.8"/>
<circle cx="370" cy="215" r="2" fill="#0f172a" opacity="0.9"/>
<circle cx="370" cy="227" r="4" fill="#fbbf24" opacity="0.8"/>
<circle cx="370" cy="227" r="2" fill="#0f172a" opacity="0.9"/>
<circle cx="370" cy="239" r="4" fill="#fbbf24" opacity="0.8"/>
<circle cx="370" cy="239" r="2" fill="#0f172a" opacity="0.9"/>
<circle cx="370" cy="251" r="4" fill="#fbbf24" opacity="0.8"/>
<circle cx="370" cy="251" r="2" fill="#0f172a" opacity="0.9"/>
<circle cx="370" cy="263" r="4" fill="#fbbf24" opacity="0.8"/>
<circle cx="370" cy="263" r="2" fill="#0f172a" opacity="0.9"/>
<circle cx="370" cy="275" r="4" fill="#fbbf24" opacity="0.8"/>
<circle cx="370" cy="275" r="2" fill="#0f172a" opacity="0.9"/>
<circle cx="370" cy="287" r="4" fill="#fbbf24" opacity="0.8"/>
<circle cx="370" cy="287" r="2" fill="#0f172a" opacity="0.9"/>
<circle cx="370" cy="299" r="4" fill="#fbbf24" opacity="0.8"/>
<circle cx="370" cy="299" r="2" fill="#0f172a" opacity="0.9"/>
<circle cx="370" cy="311" r="4" fill="#fbbf24" opacity="0.8"/>
<circle cx="370" cy="311" r="2" fill="#0f172a" opacity="0.9"/>
<circle cx="370" cy="323" r="4" fill="#fbbf24" opacity="0.8"/>
<circle cx="370" cy="323" r="2" fill="#0f172a" opacity="0.9"/>

      
      <!-- USB Port -->
      <rect x="280" y="70" width="40" height="15" rx="2" fill="#94a3b8"/>
      <rect x="285" y="68" width="30" height="4" fill="#475569"/>
      
      <!-- Main Chip -->
      <rect x="270" y="150" width="60" height="60" rx="4" fill="#0f172a" stroke="#1e293b" stroke-width="2"/>
      <circle cx="278" cy="158" r="3" fill="#334155"/>
      <text x="300" y="180" font-family="monospace" font-size="10" font-weight="bold" fill="#64748b" text-anchor="middle" letter-spacing="1">RP2350</text>
      <text x="300" y="195" font-family="monospace" font-size="7" fill="#475569" text-anchor="middle">ARM Cortex</text>
      
      <!-- Wifi Module -->
      
      <rect x="275" y="240" width="50" height="50" rx="2" fill="#cbd5e1" stroke="#94a3b8" stroke-width="1"/>
      <path d="M285 245 L315 245 L315 270" fill="none" stroke="#64748b" stroke-width="2" stroke-dasharray="2 4"/>
      <text x="300" y="280" font-family="monospace" font-size="8" fill="#475569" text-anchor="middle">WiFi/BT</text>
      
      
      <!-- Boot Button -->
      <circle cx="300" cy="115" r="8" fill="#1e293b" stroke="#cbd5e1" stroke-width="1"/>
      <circle cx="300" cy="115" r="4" fill="#f8fafc"/>
      
      <!-- RP Logo styling -->
      <text x="340" y="320" font-family="sans-serif" font-size="14" font-weight="900" fill="#a7f3d0" transform="rotate(-90 340 320)">PICO</text>
    
  </g>
</svg>